<?xml version="1.0" encoding="UTF-8" standalone="no"?>
<svg
   xmlns:osb="http://www.openswatchbook.org/uri/2009/osb"
   xmlns:dc="http://purl.org/dc/elements/1.1/"
   xmlns:cc="http://creativecommons.org/ns#"
   xmlns:rdf="http://www.w3.org/1999/02/22-rdf-syntax-ns#"
   xmlns:svg="http://www.w3.org/2000/svg"
   xmlns="http://www.w3.org/2000/svg"
   xmlns:xlink="http://www.w3.org/1999/xlink"
   xmlns:sodipodi="http://sodipodi.sourceforge.net/DTD/sodipodi-0.dtd"
   xmlns:inkscape="http://www.inkscape.org/namespaces/inkscape"
   inkscape:version="1.0 (6e3e5246a0, 2020-05-07)"
   sodipodi:docname="logo.svg"
   id="svg6"
   version="1.1"
   fill="none"
   viewBox="0 0 205 22"
   height="22"
   width="205">
  <metadata
     id="metadata12">
    <rdf:RDF>
      <cc:Work
         rdf:about="">
        <dc:format>image/svg+xml</dc:format>
        <dc:type
           rdf:resource="http://purl.org/dc/dcmitype/StillImage" />
      </cc:Work>
    </rdf:RDF>
  </metadata>
  <defs
     id="defs10">
    <linearGradient
       osb:paint="solid"
       id="linearGradient3017">
      <stop
         id="stop3015"
         offset="0"
         style="stop-color:#000000;stop-opacity:1;" />
    </linearGradient>
    <linearGradient
       osb:paint="solid"
       id="linearGradient1063">
      <stop
         id="stop1061"
         offset="0"
         style="stop-color:#000000;stop-opacity:1;" />
    </linearGradient>
    <linearGradient
       gradientUnits="userSpaceOnUse"
       y2="11.732877"
       x2="189.29222"
       y1="11.732877"
       x1="84.252219"
       id="linearGradient3019"
       xlink:href="#linearGradient3017"
       inkscape:collect="always" />
  </defs>
  <sodipodi:namedview
     inkscape:current-layer="svg6"
     inkscape:window-maximized="1"
     inkscape:window-y="27"
     inkscape:window-x="0"
     inkscape:cy="11"
     inkscape:cx="111.89091"
     inkscape:zoom="6.0097561"
     showgrid="false"
     id="namedview8"
     inkscape:window-height="1016"
     inkscape:window-width="1920"
     inkscape:pageshadow="2"
     inkscape:pageopacity="0"
     guidetolerance="10"
     gridtolerance="10"
     objecttolerance="10"
     borderopacity="1"
     bordercolor="#666666"
     pagecolor="#ffffff" />
  <g
     style="font-style:normal;font-weight:normal;font-size:36.3847px;line-height:1.25;font-family:sans-serif;fill:#000000;fill-opacity:1;stroke:none;stroke-width:1.10256"
     id="text16"
     transform="matrix(1.1025661,-0.04358215,0,0.90697512,0,0)"
     aria-label="Evo">
    <path
       d="m 43.091943,21.348507 q 1.456809,0 2.629363,-1.332448 0.941596,-1.083724 0.941596,-5.294258 -0.01777,-2.11415 -0.994894,-3.197874 -0.994894,-1.083724 -2.576065,-1.083724 -1.36798,0 -2.38064,1.137022 -1.208086,1.350214 -1.208086,3.144576 0.01777,3.979577 1.208086,5.294258 1.19032,1.314682 2.38064,1.332448 z M 49.150138,9.8894582 q 2.505001,2.4872358 2.505001,6.0048968 0,3.517662 -2.540533,6.022663 -2.522768,2.487235 -5.542982,2.469469 -0.248724,0.01777 -0.479681,0 -3.411066,0.142128 -5.987131,-2.416171 -2.558299,-2.558299 -2.558299,-6.093727 0.01777,-3.553193 2.487235,-6.0226628 2.487235,-2.4694694 5.560748,-2.4517034 0.230957,-0.017766 0.479681,-0.017766 3.570959,0 6.075961,2.5050014 z M 30.229382,7.9529678 q 0,0 0.07106,0 1.296916,0 2.043086,1.048192 0.728405,1.0126602 0.284256,2.2562782 l -3.499896,10.020005 q -0.444149,1.296916 -1.598937,2.11415 -1.154788,0.817235 -2.540533,0.799469 h -0.07106 q -1.421277,0 -2.558299,-0.852767 -1.137022,-0.870532 -1.527873,-2.131916 l -3.144577,-9.948941 q -0.390851,-1.261384 0.319788,-2.2562782 0.710639,-1.0304261 2.007554,-1.048192 h 0.319788 q 0.781702,0 1.492341,0.497447 0.710638,0.5152131 0.906064,1.2613837 1.705533,6.3069185 2.345108,9.6291545 h 0.106596 q 0.604042,-2.860321 2.682661,-9.6291545 0.230957,-0.7639366 0.906064,-1.2613837 0.710639,-0.497447 1.456809,-0.497447 z M 6.1031984,20.247017 13.458309,20.104889 q 0.781702,-0.01777 1.403511,0.550745 0.621809,0.568511 0.621809,1.45681 v 0.07106 q 0,0.835001 -0.586277,1.439044 -0.586277,0.586277 -1.439043,0.568511 H 3.9357504 q -1.2969156,0 -2.2385118,-0.941597 Q 0.75564231,22.307869 0.75564231,21.010954 V 4.9505193 q 0,-1.2791496 0.90606429,-2.2385119 Q 2.567771,1.7704112 3.9357504,1.7704112 h 9.0428776 q 1.01266,0 1.581171,0.7106387 0.870532,1.065958 0.373085,2.0786181 Q 14.435437,5.5723282 14.240011,5.7322219 13.635969,6.211903 12.943096,6.176371 L 6.1031984,5.8565836 v 5.0455344 l 6.4490466,-0.159893 q 0.799468,-0.01777 1.403511,0.550745 0.604043,0.568511 0.604043,1.421277 v 0.07106 q 0,0.852766 -0.604043,1.439043 -0.604043,0.586277 -1.403511,0.568511 l -6.4490466,-0.15989 z"
       style="font-style:normal;font-variant:normal;font-weight:normal;font-stretch:normal;font-size:36.3847px;font-family:Dyuthi;-inkscape-font-specification:Dyuthi;stroke-width:1.10256"
       id="path3025" />
  </g>
  <text
     transform="scale(1.0542604,0.94853227)"
     id="text20"
     y="22.324877"
     x="83.740219"
     style="font-style:normal;font-weight:normal;font-size:32px;line-height:1.25;font-family:sans-serif;fill:url(#linearGradient3019);fill-opacity:1;stroke:none;stroke-width:1.054;stroke-miterlimit:4;stroke-dasharray:none"
     xml:space="preserve"><tspan
       style="font-style:normal;font-variant:normal;font-weight:bold;font-stretch:normal;font-size:32px;font-family:'Nimbus Roman';-inkscape-font-specification:'Nimbus Roman, Bold';fill:#ff9a00;fill-opacity:1;stroke-width:1.054;stroke-miterlimit:4;stroke-dasharray:none"
       y="22.324877"
       x="83.740219"
       id="tspan18"
       sodipodi:role="line">Flowers</tspan></text>
  <image
     sodipodi:absref="/home/samer/Desktop/Untitled.png"
     xlink:href="../../Untitled.png"
     y="0.073541678"
     x="58.828976"
     id="image221"
     preserveAspectRatio="none"
     height="21.727158"
     width="20.338207" />
</svg>
